<svg xmlns="http://www.w3.org/2000/svg" viewBox="0 0 256 256" role="img" aria-label="The Guild 2 Translator">
  <defs>
    <linearGradient id="paper" x1="36" y1="24" x2="220" y2="232" gradientUnits="userSpaceOnUse">
      <stop offset="0" stop-color="#fff4c4"/>
      <stop offset="0.48" stop-color="#e5c27f"/>
      <stop offset="1" stop-color="#b7833d"/>
    </linearGradient>
    <linearGradient id="rim" x1="24" y1="28" x2="232" y2="228" gradientUnits="userSpaceOnUse">
      <stop offset="0" stop-color="#8f5b24"/>
      <stop offset="1" stop-color="#2c1b12"/>
    </linearGradient>
    <filter id="shadow" x="-20%" y="-20%" width="140%" height="140%">
      <feDropShadow dx="0" dy="10" stdDeviation="9" flood-color="#21140c" flood-opacity="0.45"/>
    </filter>
  </defs>
  <rect width="256" height="256" rx="52" fill="#3c2b1c"/>
  <rect x="28" y="24" width="200" height="208" rx="30" fill="url(#rim)" filter="url(#shadow)"/>
  <rect x="42" y="38" width="172" height="180" rx="22" fill="url(#paper)"/>
  <path d="M58 65c35-12 105-12 140 0M58 191c35 12 105 12 140 0" fill="none" stroke="#8a5b2b" stroke-width="8" stroke-linecap="round" opacity="0.55"/>
  <path d="M72 89h70M72 116h112M72 143h82" fill="none" stroke="#6f4725" stroke-width="11" stroke-linecap="round" opacity="0.82"/>
  <circle cx="178" cy="144" r="32" fill="#7f9f47" stroke="#2f3b1d" stroke-width="8"/>
  <path d="M166 144h24M178 132v24" fill="none" stroke="#f7e8a6" stroke-width="8" stroke-linecap="round"/>
  <text x="128" y="177" text-anchor="middle" font-family="Georgia, 'Times New Roman', serif" font-size="78" font-weight="700" fill="#3a2414">T</text>
</svg>
